<svg width="500" height="386" viewBox="0 0 500 386" fill="none" xmlns="http://www.w3.org/2000/svg">
<g clip-path="url(#clip0_1_42)">
<path d="M479.234 337.743C477.259 321.776 467.325 306.049 452.124 300.907C458.109 317.351 458.109 335.351 452.124 351.735C449.79 358.074 446.499 364.831 448.713 371.23C450.09 375.176 453.441 378.226 457.151 380.14C460.922 382.053 465.051 382.95 469.18 383.847L469.958 384.505C476.541 369.735 481.269 353.649 479.234 337.743Z" fill="#AABCC5"/>
<path d="M452.005 301.146C460.862 311.072 466.367 323.51 467.744 336.786C468.103 339.656 467.983 342.526 467.445 345.337C466.846 348.088 465.47 350.539 463.555 352.573C461.819 354.486 459.785 356.28 458.528 358.612C457.271 361.004 457.092 363.874 458.049 366.446C459.186 369.615 461.34 372.187 463.555 374.638C466.008 377.389 468.642 380.14 469.659 383.787C469.779 384.206 470.437 384.027 470.317 383.548C468.462 377.269 462.358 373.681 459.485 368.001C458.109 365.369 457.57 362.26 458.827 359.509C459.964 357.057 461.999 355.263 463.794 353.29C465.709 351.317 467.086 348.925 467.864 346.354C468.582 343.603 468.761 340.732 468.522 337.862C468.043 331.464 466.487 325.125 464.034 319.205C461.281 312.388 457.331 306.109 452.424 300.667C452.184 300.309 451.706 300.847 452.005 301.146Z" fill="white"/>
<path d="M467.564 332.48C472.113 331.404 475.165 327.158 474.806 322.554C474.746 322.075 474.087 322.135 474.087 322.613C474.446 326.919 471.574 330.866 467.325 331.882C466.906 331.942 467.145 332.6 467.564 332.48Z" fill="white"/>
<path d="M464.572 351.735C460.622 349.403 457.69 345.636 456.373 341.211C456.254 340.792 455.595 340.972 455.715 341.45C457.092 346.055 460.144 349.941 464.273 352.393C464.632 352.573 464.931 351.975 464.572 351.735Z" fill="white"/>
<path d="M460.622 313.046C459.007 313.823 457.092 313.703 455.536 312.806C455.117 312.567 454.818 313.225 455.236 313.464C456.972 314.481 459.066 314.6 460.862 313.763C461.041 313.703 461.161 313.524 461.101 313.345C461.041 313.105 460.802 312.986 460.622 313.046Z" fill="white"/>
<path d="M405.745 329.371C405.984 329.55 406.224 329.67 406.463 329.849C409.695 331.942 412.687 334.334 415.5 336.905C415.739 337.085 415.919 337.324 416.158 337.503C422.92 343.842 428.366 351.377 432.376 359.689C433.932 362.978 435.308 366.446 436.326 369.974C437.822 374.818 439.019 380.2 441.891 384.206C442.19 384.625 442.49 385.043 442.849 385.402H469.06C469.12 385.402 469.18 385.342 469.24 385.342L470.317 385.402C470.257 385.223 470.257 385.043 470.197 384.864C470.197 384.744 470.138 384.625 470.138 384.565C470.138 384.505 470.078 384.445 470.078 384.385V384.326C470.078 384.266 470.018 384.206 470.018 384.146C469.779 383.07 469.479 381.993 469.18 380.917C467.026 372.784 464.153 364.712 460.203 357.356C460.084 357.117 459.964 356.878 459.844 356.699C458.049 353.41 455.955 350.24 453.621 347.25C452.364 345.636 450.987 344.081 449.551 342.586C445.841 338.759 441.532 335.53 436.804 333.078C427.409 328.115 416.517 326.201 406.463 329.251C406.224 329.191 405.984 329.251 405.745 329.371Z" fill="#AABCC5"/>
<path d="M405.805 329.67C418.851 332.241 430.76 338.879 439.856 348.626C441.831 350.659 443.507 353.051 444.764 355.622C445.901 358.194 446.32 361.004 446.02 363.755C445.781 366.326 445.242 368.957 445.601 371.589C446.02 374.279 447.636 376.671 449.91 378.107C452.723 379.96 456.014 380.738 459.246 381.336C462.837 382.053 466.607 382.711 469.659 384.924C470.018 385.223 470.437 384.625 470.078 384.326C464.812 380.379 457.81 381.216 452.065 378.465C449.372 377.15 447.098 375.057 446.439 372.067C445.841 369.436 446.439 366.745 446.679 364.114C447.038 361.423 446.679 358.672 445.721 356.101C444.584 353.47 443.028 351.018 441.113 348.925C436.864 344.081 431.837 340.015 426.272 336.726C419.928 332.959 413.046 330.328 405.805 328.892C405.386 328.892 405.386 329.61 405.805 329.67Z" fill="white"/>
<path d="M437.104 345.337C440.036 341.749 439.976 336.547 436.864 333.018C436.565 332.66 436.026 333.138 436.326 333.497C439.198 336.726 439.258 341.629 436.505 344.918C436.206 345.277 436.804 345.696 437.104 345.337Z" fill="white"/>
<path d="M446.32 362.499C441.712 362.978 437.163 361.722 433.453 359.031C433.094 358.732 432.675 359.33 433.034 359.629C436.864 362.499 441.712 363.755 446.439 363.217C446.858 363.157 446.738 362.439 446.32 362.499Z" fill="white"/>
<path d="M419.868 333.975C419.031 335.59 417.415 336.666 415.619 336.846C415.141 336.905 415.32 337.563 415.739 337.563C417.714 337.324 419.509 336.188 420.407 334.394C420.527 334.214 420.467 334.035 420.347 333.915C420.168 333.796 419.988 333.856 419.868 333.975Z" fill="white"/>
<path d="M363.495 57.4067L50.4488 0.0598059C49.7905 -0.0597913 49.1323 -0.0597913 48.5338 0.0598059C47.9354 0.179403 47.3968 0.418597 46.9779 0.777389C46.4991 1.13618 46.14 1.61457 45.9007 2.09296C45.6613 2.63115 45.4818 3.28893 45.4818 3.88692V284.103C45.4818 284.701 45.6014 285.359 45.9007 285.897C46.14 286.435 46.4991 286.854 46.9779 287.213C47.4566 287.571 47.9952 287.811 48.5338 287.93C49.1921 288.05 49.8504 288.05 50.4488 287.93L363.495 230.823C363.734 230.763 363.974 230.643 364.213 230.464C364.452 230.284 364.632 230.045 364.752 229.746C364.931 229.447 365.051 229.088 365.111 228.789C365.23 228.431 365.23 228.012 365.23 227.653V60.576C365.23 60.2172 365.171 59.7986 365.111 59.4398C365.051 59.081 364.871 58.782 364.752 58.483C364.632 58.1841 364.393 57.9449 364.213 57.7655C364.034 57.5861 363.794 57.4665 363.495 57.4067Z" fill="#AABCC5"/>
<path d="M368.282 57.4067L55.2364 0.0598059C54.5781 -0.0597913 53.9198 -0.0597913 53.3214 0.0598059C52.7229 0.179403 52.1843 0.418597 51.7654 0.777389C51.2867 1.13618 50.9276 1.61457 50.6882 2.09296C50.4488 2.63115 50.2693 3.28893 50.2693 3.88692V284.103C50.2693 284.701 50.389 285.359 50.6882 285.897C50.9276 286.435 51.2867 286.854 51.7654 287.213C52.2442 287.571 52.7828 287.811 53.3214 287.93C53.9797 288.05 54.6379 288.05 55.2364 287.93L368.282 230.823C368.522 230.763 368.761 230.643 369.001 230.464C369.24 230.284 369.42 230.045 369.539 229.746C369.719 229.447 369.838 229.088 369.898 228.789C370.018 228.431 370.018 228.012 370.018 227.653V60.576C370.018 60.2172 369.958 59.7986 369.898 59.4398C369.838 59.081 369.659 58.782 369.539 58.483C369.42 58.1841 369.18 57.9449 369.001 57.7655C368.821 57.5861 368.582 57.4665 368.282 57.4067Z" fill="white"/>
<path d="M368.282 57.4067L55.2364 0.0598059C54.5781 -0.0597913 53.9198 -0.0597913 53.3214 0.0598059C52.7229 0.179403 52.1843 0.418597 51.7654 0.777389C51.2867 1.13618 50.9276 1.61457 50.6882 2.09296C50.4488 2.63115 50.2693 3.28893 50.2693 3.88692V284.103C50.2693 284.701 50.389 285.359 50.6882 285.897C50.9276 286.435 51.2867 286.854 51.7654 287.213C52.2442 287.571 52.7828 287.811 53.3214 287.93C53.9797 288.05 54.6379 288.05 55.2364 287.93L368.282 230.823C368.522 230.763 368.761 230.643 369.001 230.464C369.24 230.284 369.42 230.045 369.539 229.746C369.719 229.447 369.838 229.088 369.898 228.789C370.018 228.431 370.018 228.012 370.018 227.653V60.576C370.018 60.2172 369.958 59.7986 369.898 59.4398C369.838 59.081 369.659 58.782 369.539 58.483C369.42 58.1841 369.18 57.9449 369.001 57.7655C368.821 57.5861 368.582 57.4665 368.282 57.4067ZM369.479 227.713C369.479 227.952 369.42 228.251 369.36 228.49C369.3 228.73 369.24 228.909 369.12 229.148C369.001 229.328 368.881 229.507 368.761 229.627C368.642 229.746 368.462 229.806 368.282 229.866L55.2364 286.495C54.8175 286.555 54.3986 286.555 53.9797 286.495C53.6206 286.435 53.2615 286.256 52.9025 286.017C52.6032 285.778 52.3639 285.479 52.1843 285.12C52.0048 284.761 51.9449 284.342 51.9449 283.924V4.24571C51.9449 3.82712 52.0048 3.40853 52.1843 3.04974C52.3639 2.69094 52.6032 2.39195 52.9025 2.15276C53.2615 1.97336 53.6206 1.79397 53.9797 1.67437C54.3986 1.55477 54.8175 1.55477 55.2364 1.67437L368.282 58.3634C368.462 58.4232 368.642 58.483 368.761 58.6026C368.941 58.7222 369.06 58.9016 369.12 59.081C369.24 59.2604 369.3 59.4996 369.36 59.7388C369.42 59.978 369.479 60.2172 369.479 60.5162V227.713Z" fill="#AABCC5"/>
<path d="M0 87.4854C0 85.5718 0.418911 83.6582 1.19689 81.9241C1.91502 80.3095 3.05206 78.8744 4.42849 77.798C5.80491 76.6618 7.42071 75.8844 9.15619 75.4658C11.0114 74.9874 12.9862 74.9276 14.8414 75.2864C16.8163 75.6452 18.7313 76.3628 20.4668 77.3794C22.2023 78.396 23.6984 79.7115 25.015 81.2065C26.2717 82.7015 27.289 84.3758 28.067 86.2296C28.7852 88.0235 29.1442 89.9969 29.1442 91.9104C29.1442 93.7642 28.7852 95.5582 28.067 97.2923C27.3489 98.8471 26.3315 100.282 25.015 101.359C23.6984 102.495 22.1424 103.332 20.4668 103.81C18.6116 104.349 16.7564 104.468 14.8414 104.169C12.8665 103.87 10.8917 103.272 9.15619 102.256C7.36086 101.299 5.80491 99.9833 4.42849 98.4883C3.05206 96.9933 1.97487 95.2592 1.19689 93.3456C0.418911 91.4919 0 89.5185 0 87.4854Z" fill="#AABCC5"/>
<path d="M0 145.49C0 143.576 0.418911 141.663 1.19689 139.929C1.91502 138.314 3.05206 136.879 4.42849 135.803C5.80491 134.666 7.42071 133.889 9.15619 133.47C11.0114 132.992 12.9862 132.932 14.8414 133.291C16.8163 133.65 18.7313 134.367 20.4668 135.384C22.2023 136.401 23.6984 137.716 25.015 139.211C26.2717 140.706 27.289 142.38 28.067 144.234C28.7852 146.028 29.1442 148.002 29.1442 149.915C29.1442 151.769 28.7852 153.563 28.067 155.297C27.3489 156.852 26.3315 158.287 25.015 159.363C23.6984 160.499 22.1424 161.337 20.4668 161.815C18.6116 162.353 16.7564 162.473 14.8414 162.174C12.8665 161.875 10.8917 161.277 9.15619 160.26C7.36086 159.303 5.80491 157.988 4.42849 156.493C3.05206 154.998 1.97487 153.264 1.19689 151.35C0.418911 149.497 0 147.523 0 145.49Z" fill="#AABCC5"/>
<path d="M0 203.495C0 201.581 0.418911 199.668 1.19689 197.933C1.91502 196.319 3.05206 194.884 4.42849 193.807C5.80491 192.671 7.42071 191.894 9.15619 191.475C11.0114 190.997 12.9862 190.937 14.8414 191.296C16.8163 191.655 18.7313 192.372 20.4668 193.389C22.2023 194.405 23.6984 195.721 25.015 197.216C26.2717 198.711 27.289 200.385 28.067 202.239C28.7852 204.033 29.1442 206.006 29.1442 207.92C29.1442 209.773 28.7852 211.567 28.067 213.302C27.3489 214.856 26.3315 216.292 25.015 217.368C23.6984 218.504 22.1424 219.341 20.4668 219.82C18.6116 220.358 16.7564 220.477 14.8414 220.178C12.8665 219.879 10.8917 219.281 9.15619 218.265C7.36086 217.308 5.80491 215.993 4.42849 214.498C3.05206 213.003 1.97487 211.268 1.19689 209.355C0.418911 207.501 0 205.528 0 203.495Z" fill="#AABCC5"/>
<path d="M3.59067 87.4854C3.59067 85.5718 4.00958 83.6582 4.78756 81.9241C5.50569 80.3095 6.64273 78.8744 8.01915 77.798C9.39557 76.6618 11.0114 75.8844 12.7469 75.4658C14.602 74.9874 16.5769 74.9276 18.4321 75.2864C20.4069 75.6452 22.322 76.3628 24.0575 77.3794C25.7929 78.396 27.2891 79.7115 28.6056 81.2065C29.8624 82.7015 30.8797 84.3758 31.6577 86.2296C32.3758 88.0235 32.7349 89.9969 32.7349 91.9104C32.7349 93.7642 32.3758 95.5582 31.6577 97.2923C30.9396 98.8471 29.9222 100.282 28.6056 101.359C27.2891 102.495 25.7331 103.332 24.0575 103.81C22.2023 104.349 20.3471 104.468 18.4321 104.169C16.4572 103.87 14.4823 103.272 12.7469 102.256C10.9515 101.299 9.39557 99.9833 8.01915 98.4883C6.64273 96.9933 5.56553 95.2592 4.78756 93.3456C4.00958 91.4919 3.59067 89.5185 3.59067 87.4854Z" fill="#17A550"/>
<path d="M3.59067 145.071C3.59067 143.158 4.00958 141.185 4.78756 139.45C5.56553 137.776 6.64273 136.281 8.01915 135.085C9.39557 133.889 11.0114 132.932 12.7469 132.394C14.602 131.796 16.5171 131.617 18.4321 131.796C20.4069 131.976 22.322 132.574 24.0575 133.47C25.7331 134.367 27.2891 135.563 28.6056 136.939C29.8624 138.314 30.9396 139.989 31.6577 141.723C32.3758 143.517 32.7349 145.43 32.7349 147.344C32.7349 149.198 32.3758 151.051 31.6577 152.785C30.2214 156.074 27.5284 158.646 24.1173 159.901C22.322 160.559 20.4069 160.798 18.4919 160.679C16.5171 160.559 14.602 160.081 12.8067 159.184C9.21604 157.45 6.40335 154.52 4.8474 150.872C4.00958 149.078 3.59067 147.045 3.59067 145.071Z" fill="#17A550"/>
<path d="M3.59067 202.657C3.59067 198.771 5.14662 195.003 8.01915 192.312C13.8241 186.751 23.0999 186.93 28.6655 192.791C29.9222 194.106 30.8797 195.601 31.5978 197.276C34.6499 204.631 31.1191 213.062 23.7582 216.112C22.0826 216.83 20.2274 217.189 18.4321 217.189C12.5075 217.248 7.18133 213.84 4.78756 208.398C4.00958 206.604 3.59067 204.631 3.59067 202.657Z" fill="#17A550"/>
<path d="M12.6272 87.4256L16.9958 88.0834V83.7779C16.9958 83.5985 17.0557 83.4191 17.1155 83.2397C17.1753 83.0603 17.295 82.9407 17.4147 82.8211C17.5344 82.7015 17.7139 82.6417 17.8935 82.5819C18.073 82.5221 18.2525 82.5221 18.4321 82.5819C18.6116 82.6417 18.7911 82.7015 18.9707 82.7613C19.1502 82.8809 19.2699 83.0005 19.4494 83.1201C19.5691 83.2397 19.6888 83.4191 19.7487 83.5985C19.8085 83.7779 19.8683 83.9573 19.8683 84.1965V88.4422L24.1173 89.0999C24.2968 89.1597 24.4764 89.2195 24.6559 89.2793C25.015 89.4587 25.2543 89.7577 25.4339 90.1165C25.4937 90.2959 25.5536 90.4753 25.5536 90.6547C25.5536 90.8341 25.4937 91.0135 25.4339 91.1929C25.374 91.3723 25.2543 91.4919 25.1347 91.6115C25.015 91.7311 24.8354 91.7909 24.7157 91.8507C24.5362 91.9105 24.3567 91.9105 24.1771 91.8507L19.9282 91.1929V95.4386C19.9282 95.618 19.8683 95.7974 19.8085 95.9768C19.7487 96.1562 19.629 96.2758 19.5093 96.3954C19.3896 96.515 19.2101 96.5748 19.0305 96.6346C18.851 96.6944 18.6715 96.6944 18.4919 96.6944C18.3124 96.6944 18.1329 96.5748 17.9533 96.515C17.7738 96.3954 17.6541 96.2758 17.4746 96.1562C17.3549 96.0366 17.2352 95.8572 17.1753 95.6778C17.1155 95.4984 17.0557 95.319 17.0557 95.0798V90.8939L12.687 90.2361C12.5075 90.1763 12.2681 90.1165 12.1484 90.0567C11.9689 89.9371 11.7893 89.8175 11.6697 89.6979C11.55 89.5783 11.4303 89.3989 11.3704 89.2195C11.3106 89.0401 11.2507 88.8607 11.2507 88.6216C11.2507 88.4422 11.3106 88.2628 11.3704 88.0834C11.4303 87.904 11.55 87.7844 11.6697 87.6648C11.7893 87.5452 11.9689 87.4854 12.1484 87.4256C12.2681 87.3658 12.4476 87.3658 12.6272 87.4256Z" fill="white"/>
<path d="M15.6792 150.035L27.7678 150.932H27.8276L22.1424 140.646C22.0826 140.587 22.0826 140.527 22.0227 140.467C21.9629 140.467 21.9629 140.407 21.903 140.407C21.8432 140.407 21.8432 140.407 21.7834 140.407C21.7235 140.407 21.7235 140.407 21.6637 140.407C21.6038 140.407 21.6038 140.407 21.544 140.467C21.4841 140.527 21.4243 140.527 21.4243 140.587L17.5942 146.925L17.4147 147.224L15.6792 150.035Z" fill="white"/>
<path d="M8.79713 149.556L19.4494 150.334L17.4147 147.224L17.295 146.985L14.602 142.919C14.5422 142.859 14.4824 142.799 14.4225 142.739C14.3627 142.739 14.3627 142.679 14.3028 142.679C14.243 142.679 14.243 142.679 14.1831 142.679C14.1233 142.679 14.1233 142.679 14.0634 142.679C14.0036 142.679 14.0036 142.679 13.9438 142.679C13.8839 142.679 13.8839 142.679 13.8241 142.739C13.7642 142.739 13.7642 142.799 13.7642 142.799L8.79713 149.556Z" fill="white"/>
<path d="M16.8761 138.972C17.1155 138.972 17.3549 139.032 17.5943 139.151C17.8336 139.271 18.0132 139.391 18.1927 139.57C18.3722 139.749 18.4919 139.929 18.5518 140.168C18.6715 140.407 18.6715 140.646 18.6715 140.886C18.6715 141.125 18.6116 141.364 18.5518 141.543C18.4321 141.723 18.3124 141.902 18.1927 142.081C18.0132 142.261 17.8336 142.321 17.5943 142.44C17.3549 142.5 17.1155 142.56 16.8761 142.5C16.6367 142.5 16.3974 142.44 16.158 142.321C15.9186 142.201 15.7391 142.081 15.5595 141.902C15.38 141.723 15.2603 141.543 15.1406 141.304C15.0209 141.065 15.021 140.826 15.021 140.587C15.021 140.347 15.0808 140.108 15.1406 139.929C15.2603 139.749 15.38 139.57 15.5595 139.391C15.7391 139.211 15.9186 139.151 16.158 139.032C16.3974 138.972 16.6367 138.972 16.8761 138.972Z" fill="white"/>
<path d="M147.098 179.874L266.607 66.5558L267.145 67.4528L147.816 180.831L147.098 179.874Z" fill="#AABCC5"/>
<path d="M147.098 51.4866L147.876 50.5896L267.086 174.253L266.547 175.09L147.098 51.4866Z" fill="#AABCC5"/>
<path d="M265.35 64.9413L149.192 49.0348C148.653 48.9751 148.115 48.975 147.576 49.1544C147.098 49.3338 146.619 49.573 146.26 49.9318C145.901 50.2906 145.601 50.769 145.362 51.2474C145.123 51.7856 145.003 52.3836 145.063 52.9816V177.901C145.063 178.499 145.183 179.097 145.362 179.635C145.542 180.173 145.841 180.652 146.26 181.01C146.619 181.369 147.098 181.728 147.576 181.907C148.055 182.087 148.653 182.206 149.192 182.147L265.35 175.808C265.769 175.808 266.128 175.688 266.427 175.449C266.786 175.21 267.086 174.911 267.325 174.612C267.564 174.253 267.804 173.835 267.923 173.416C268.043 172.938 268.163 172.459 268.163 171.981V69.1272C268.163 68.6488 268.103 68.1106 267.923 67.6322C267.804 67.1538 267.564 66.7352 267.325 66.3764C267.086 66.0177 266.786 65.7187 266.427 65.4795C266.128 65.1805 265.769 65.0011 265.35 64.9413ZM149.192 180.951C148.773 180.951 148.414 180.891 148.055 180.771C147.696 180.652 147.397 180.412 147.098 180.113C146.798 179.814 146.619 179.515 146.439 179.097C146.26 178.678 146.2 178.26 146.2 177.841V53.1012C146.2 52.6826 146.26 52.264 146.439 51.8454C146.559 51.4866 146.798 51.1876 147.098 50.8886C147.337 50.6494 147.696 50.4102 148.055 50.3504C148.414 50.2308 148.833 50.171 149.192 50.2308L265.35 65.9579C265.649 66.0177 265.889 66.1373 266.128 66.2568C266.367 66.4362 266.607 66.6754 266.786 66.9146C266.966 67.2136 267.145 67.5126 267.205 67.8116C267.325 68.1704 267.385 68.5292 267.385 68.888V171.921C267.385 172.28 267.325 172.639 267.205 172.997C267.086 173.296 266.966 173.595 266.786 173.894C266.607 174.134 266.367 174.313 266.128 174.492C265.889 174.612 265.589 174.732 265.35 174.732L149.192 180.951Z" fill="#AABCC5"/>
<path d="M145.362 195.422C145.063 195.482 144.764 195.541 144.524 195.781C144.225 195.96 143.986 196.259 143.806 196.558C143.627 196.857 143.447 197.216 143.327 197.634C143.208 198.053 143.148 198.472 143.148 198.89C143.148 199.309 143.208 199.668 143.327 200.086C143.447 200.445 143.567 200.744 143.806 201.043C143.986 201.282 144.225 201.521 144.464 201.641C144.704 201.76 145.003 201.82 145.302 201.82L348.653 185.017C348.833 185.017 348.953 184.957 349.072 184.837C349.192 184.718 349.312 184.538 349.432 184.359C349.551 184.12 349.611 183.881 349.671 183.642C349.731 183.343 349.791 183.044 349.791 182.745C349.791 182.446 349.791 182.147 349.731 181.907C349.671 181.668 349.611 181.429 349.491 181.19C349.431 181.01 349.312 180.831 349.132 180.711C349.013 180.592 348.833 180.532 348.713 180.532H348.653L145.362 195.422Z" fill="#AABCC5"/>
<path d="M145.362 214.557C145.063 214.617 144.764 214.737 144.524 214.916C144.225 215.155 143.986 215.395 143.806 215.694C143.627 216.052 143.447 216.411 143.327 216.77C143.208 217.189 143.148 217.607 143.148 218.026C143.148 218.444 143.208 218.803 143.327 219.222C143.447 219.58 143.567 219.879 143.806 220.178C143.986 220.418 144.225 220.657 144.464 220.776C144.704 220.896 145.003 220.956 145.302 220.956L348.653 198.531C348.833 198.531 348.953 198.412 349.072 198.352C349.192 198.232 349.312 198.053 349.432 197.874C349.551 197.634 349.611 197.395 349.671 197.156C349.731 196.857 349.791 196.558 349.791 196.259C349.791 195.96 349.791 195.661 349.731 195.422C349.671 195.183 349.611 194.943 349.491 194.704C349.431 194.525 349.312 194.345 349.132 194.226C349.013 194.106 348.833 194.046 348.713 194.106H348.653L145.362 214.557Z" fill="#AABCC5"/>
<path d="M145.362 233.394C145.063 233.454 144.764 233.573 144.524 233.753C144.225 233.992 143.986 234.231 143.806 234.53C143.627 234.889 143.447 235.248 143.327 235.607C143.208 236.025 143.148 236.444 143.148 236.862C143.148 237.281 143.208 237.64 143.327 238.058C143.447 238.417 143.567 238.716 143.806 238.955C143.986 239.194 144.225 239.374 144.464 239.553C144.704 239.673 145.003 239.733 145.302 239.673L348.653 211.747C348.833 211.747 348.953 211.627 349.072 211.508C349.192 211.388 349.312 211.209 349.432 210.969C349.551 210.73 349.611 210.491 349.671 210.252C349.731 209.953 349.791 209.654 349.791 209.355C349.791 209.056 349.791 208.757 349.731 208.518C349.671 208.279 349.611 208.039 349.491 207.86C349.431 207.681 349.312 207.561 349.132 207.441C349.013 207.322 348.833 207.322 348.713 207.322H348.653L145.362 233.394Z" fill="#AABCC5"/>
<path d="M24.237 196.618L12.6272 196.498C12.4476 196.498 12.2681 196.498 12.0287 196.558C11.8492 196.618 11.6697 196.678 11.55 196.797C11.4303 196.917 11.2508 197.036 11.1909 197.216C11.0712 197.395 11.0114 197.575 10.9515 197.754C10.8917 197.993 10.9515 198.232 11.0114 198.412C11.0712 198.531 11.0712 198.651 11.1311 198.711C11.2508 198.89 11.3704 199.07 11.55 199.249C11.8492 199.488 12.1484 199.548 12.5075 199.548L15.9785 199.608C16.3375 199.608 16.6367 199.787 16.7564 200.146C16.8163 200.266 16.8163 200.385 16.8163 200.445V207.262C16.8163 207.621 16.936 207.98 17.1753 208.279C17.4147 208.578 17.7738 208.757 18.1329 208.877C18.851 208.996 19.5093 208.637 19.8085 207.98C19.9282 207.8 19.9282 207.561 19.9282 207.322V200.445C19.9282 199.967 20.2873 199.608 20.766 199.608H24.1173C24.8953 199.608 25.5536 199.07 25.7331 198.352C25.8528 197.515 25.3142 196.678 24.4764 196.558C24.3567 196.618 24.2968 196.618 24.237 196.618Z" fill="white"/>
<path d="M24.237 205.827C25.0748 205.827 25.7929 206.544 25.7929 207.382C25.7929 208.219 25.0748 208.936 24.237 208.936C23.3992 208.936 22.681 208.219 22.681 207.382C22.681 207.202 22.7409 206.963 22.8007 206.784C23.0401 206.186 23.5787 205.827 24.237 205.827Z" fill="white"/>
<path d="M296.29 115.172C296.23 115.591 296.17 116.009 296.05 116.428L320.227 145.37L329.264 143.816L333.393 157.151L317.654 161.456C315.021 162.174 312.268 161.097 310.832 158.765L288.33 122.228C283.902 122.228 280.311 118.7 280.311 114.275C280.311 109.85 283.842 106.262 288.271 106.262C292.699 106.262 296.29 109.79 296.29 114.215C296.349 114.514 296.349 114.813 296.29 115.172Z" fill="#FFB6B6"/>
<path d="M321.305 143.696C321.843 142.859 322.681 142.261 323.698 142.141L340.694 139.45C345.721 137.896 351.047 140.646 352.603 145.669C354.159 150.633 351.406 155.955 346.439 157.569L330.94 165.104C329.264 165.941 327.169 165.224 326.332 163.549C326.272 163.37 326.212 163.25 326.152 163.071L320.946 146.566C320.646 145.61 320.766 144.593 321.305 143.696Z" fill="#536D7A"/>
<path d="M322.262 378.226H314.901L311.43 349.941H322.262V378.226Z" fill="#FFB6B6"/>
<path d="M324.117 385.342H300.479V385.043C300.479 379.96 304.608 375.834 309.695 375.834H324.117V385.342Z" fill="#1D2F38"/>
<path d="M398.863 378.226H391.502L388.031 349.941H398.863V378.226Z" fill="#FFB6B6"/>
<path d="M400.718 385.342H377.08V385.043C377.08 379.96 381.209 375.834 386.296 375.834H400.718V385.342Z" fill="#1D2F38"/>
<path d="M325.135 206.006L356.912 196.797C368.522 204.99 376.481 221.434 373.908 242.723C369.719 277.047 393.896 321.119 404.309 365.848L386.296 366.386L346.858 272.084L323.698 368.419L307.6 368.898L318.372 236.264L325.135 206.006Z" fill="#1D2F38"/>
<path d="M339.258 122.587C348.347 122.587 355.715 115.225 355.715 106.143C355.715 97.0604 348.347 89.6979 339.258 89.6979C330.169 89.6979 322.801 97.0604 322.801 106.143C322.801 115.225 330.169 122.587 339.258 122.587Z" fill="#FFB6B6"/>
<path d="M322.561 179.216C318.911 172.818 317.116 165.104 320.287 158.466C321.065 156.792 323.28 155.237 324.417 153.742L337.104 134.786L351.466 132.454C363.854 142.859 353.262 178.439 363.435 201.76L320.946 224.484C323.938 212.943 328.067 188.904 322.561 179.216Z" fill="#536D7A"/>
<path d="M322.741 99.5647C322.741 99.5647 323.878 97.5315 330.521 100.163C332.855 101.119 333.932 100.88 334.111 102.913C334.65 110.508 337.463 117.803 342.131 123.843L342.19 123.903L345.542 120.853L349.85 124.261L367.923 124.62C367.923 124.62 370.796 110.568 361.281 94.6014C351.765 78.6351 332.136 87.4255 332.136 87.4255C318.791 88.2029 322.741 99.5647 322.741 99.5647Z" fill="#1D2F38"/>
<path d="M280.73 78.5156L164.572 62.6091C164.034 62.5493 163.495 62.5493 162.956 62.7287C162.478 62.9081 161.999 63.1473 161.64 63.5061C161.281 63.8649 160.981 64.3433 160.742 64.8217C160.503 65.3599 160.383 65.9579 160.443 66.5558V191.475C160.443 192.073 160.563 192.671 160.742 193.209C160.922 193.747 161.221 194.226 161.64 194.585C161.999 194.943 162.478 195.302 162.956 195.482C163.435 195.661 164.034 195.781 164.572 195.721L280.73 189.322C281.149 189.322 281.508 189.203 281.807 188.964C282.166 188.724 282.466 188.425 282.705 188.126C282.944 187.768 283.184 187.349 283.303 186.93C283.423 186.452 283.543 185.974 283.543 185.495V82.6417C283.543 82.1633 283.483 81.6251 283.303 81.1467C283.184 80.6683 282.944 80.2497 282.705 79.8909C282.466 79.5321 282.166 79.2331 281.807 78.994C281.508 78.7548 281.149 78.5754 280.73 78.5156Z" fill="#17A550"/>
<path opacity="0.2" d="M280.73 78.5156L164.572 62.6091C164.034 62.5493 163.495 62.5493 162.956 62.7287C162.478 62.9081 161.999 63.1473 161.64 63.5061C161.281 63.8649 160.981 64.3433 160.742 64.8217C160.503 65.3599 160.383 65.9579 160.443 66.5558V191.475C160.443 192.073 160.563 192.671 160.742 193.209C160.922 193.747 161.221 194.226 161.64 194.585C161.999 194.943 162.478 195.302 162.956 195.482C163.435 195.661 164.034 195.781 164.572 195.721L280.73 189.322C281.149 189.322 281.508 189.203 281.807 188.964C282.166 188.724 282.466 188.425 282.705 188.126C282.944 187.768 283.184 187.349 283.303 186.93C283.423 186.452 283.543 185.974 283.543 185.495V82.6417C283.543 82.1633 283.483 81.6251 283.303 81.1467C283.184 80.6683 282.944 80.2497 282.705 79.8909C282.466 79.5321 282.166 79.2331 281.807 78.994C281.508 78.7548 281.149 78.5754 280.73 78.5156Z" fill="black"/>
<path d="M285.518 78.5156L169.36 62.6091C168.821 62.5493 168.282 62.5493 167.744 62.7287C167.265 62.9081 166.786 63.1473 166.427 63.5061C166.068 63.8649 165.769 64.3433 165.53 64.8217C165.29 65.3599 165.171 65.9579 165.23 66.5558V191.475C165.23 192.073 165.35 192.671 165.53 193.209C165.709 193.747 166.008 194.226 166.427 194.585C166.786 194.943 167.265 195.302 167.744 195.482C168.223 195.661 168.821 195.781 169.36 195.721L285.518 189.322C285.937 189.322 286.296 189.203 286.595 188.964C286.954 188.724 287.253 188.425 287.493 188.126C287.732 187.768 287.971 187.349 288.091 186.93C288.211 186.452 288.33 185.974 288.33 185.495V82.6417C288.33 82.1633 288.27 81.6251 288.091 81.1467C287.971 80.6683 287.732 80.2497 287.493 79.8909C287.253 79.5321 286.954 79.2331 286.595 78.994C286.296 78.7548 285.937 78.5754 285.518 78.5156Z" fill="#17A550"/>
<path d="M285.039 178.439C285.338 178.738 285.637 179.037 285.937 179.336L323.519 175.509L327.289 167.137L340.634 171.144L335.428 186.572C334.53 189.143 332.077 190.817 329.384 190.698L286.475 188.844C284.022 192.492 279.054 193.508 275.404 190.997C271.753 188.545 270.736 183.582 273.25 179.934C275.703 176.286 280.67 175.27 284.321 177.781C284.5 178.02 284.8 178.2 285.039 178.439Z" fill="#FFB6B6"/>
<path d="M322.741 173.715C322.322 172.818 322.322 171.742 322.741 170.845L329.982 155.297C331.478 150.274 336.744 147.404 341.831 148.899C346.858 150.394 349.731 155.656 348.235 160.679L345.781 177.721C345.542 179.575 343.806 180.891 341.891 180.652C341.711 180.652 341.532 180.592 341.412 180.532L324.835 175.629C323.938 175.33 323.1 174.612 322.741 173.715Z" fill="#536D7A"/>
<path d="M499.402 386H271.394C271.035 386 270.796 385.761 270.796 385.402C270.796 385.043 271.035 384.804 271.394 384.804H499.402C499.761 384.804 500 385.043 500 385.402C500 385.761 499.701 386 499.402 386Z" fill="#AABCC5"/>
</g>
<defs>
<clipPath id="clip0_1_42">
<rect width="500" height="386" fill="white"/>
</clipPath>
</defs>
</svg>
