<svg width="1150" height="425" viewBox="0 0 1150 425" fill="none" xmlns="http://www.w3.org/2000/svg">
<path d="M0 10C0 4.47715 4.47715 0 10 0H1140C1145.52 0 1150 4.47715 1150 10V415C1150 420.523 1145.52 425 1140 425H10C4.47716 425 0 420.523 0 415V10Z" fill="#E3EBF1"/>
<path d="M507.909 370.43C507.909 370.43 507.84 370.43 507.794 370.43C505.471 370.404 503.631 369.69 503.7 368.832L505.241 348.491C505.31 347.633 507.15 346.936 509.565 346.978C511.888 347.004 513.728 347.718 513.659 348.576L512.118 368.917C512.049 369.758 510.186 370.43 507.909 370.43Z" fill="white"/>
<path d="M374.44 203.864C372.508 203.864 370.76 203.371 370.323 202.64L366.298 195.763C365.815 194.922 367.241 194.097 369.518 193.919C371.795 193.74 374.026 194.267 374.509 195.109L378.534 201.985C379.017 202.827 377.591 203.651 375.314 203.83C375.015 203.855 374.716 203.864 374.417 203.864H374.44Z" fill="white"/>
<path d="M227.079 389.988C225.354 389.988 223.721 389.589 223.123 388.951L216.752 382.33C215.97 381.522 217.12 380.63 219.305 380.341C221.49 380.052 223.905 380.477 224.687 381.284L231.058 387.906C231.84 388.713 230.69 389.606 228.505 389.895C228.045 389.954 227.562 389.988 227.102 389.988H227.079Z" fill="white"/>
<path d="M724.316 289.995C723.879 289.995 723.442 289.969 723.005 289.918L689.379 285.821C687.171 285.549 685.975 284.674 686.711 283.858C687.447 283.042 689.816 282.599 692.024 282.871L725.65 286.968C727.858 287.24 729.054 288.116 728.318 288.932C727.743 289.587 726.087 290.003 724.316 290.003V289.995Z" fill="white"/>
<path d="M1025.02 242.7C1024.17 242.7 1023.32 242.607 1022.58 242.411L1007.61 238.467C1005.72 237.966 1005.28 236.997 1006.62 236.3C1007.95 235.603 1010.6 235.433 1012.48 235.934L1027.46 239.878C1029.34 240.371 1029.78 241.349 1028.44 242.046C1027.62 242.471 1026.33 242.7 1025.02 242.7Z" fill="white"/>
<path d="M850.517 9.49461C849.758 9.49461 848.999 9.4181 848.309 9.2651L826.896 4.3691C824.918 3.9186 824.32 2.9581 825.539 2.2271C826.758 1.4961 829.357 1.2751 831.335 1.7256L852.748 6.6216C854.726 7.0721 855.324 8.03261 854.105 8.76361C853.3 9.23961 851.943 9.50311 850.517 9.50311V9.49461Z" fill="white"/>
<path d="M608.626 218.008C607.085 218.008 605.59 217.694 604.854 217.15C603.819 216.385 604.67 215.45 606.74 215.067L622.679 212.135C624.749 211.752 627.279 212.067 628.314 212.832C629.349 213.597 628.498 214.532 626.428 214.914L610.489 217.847C609.891 217.957 609.247 218.008 608.626 218.008Z" fill="white"/>
<path d="M152.053 233.351C151.317 233.351 150.558 233.274 149.868 233.121C147.89 232.671 147.269 231.719 148.465 230.988L170.936 217.396C172.155 216.665 174.731 216.436 176.709 216.878C178.687 217.328 179.308 218.28 178.112 219.011L155.641 232.603C154.859 233.079 153.456 233.351 152.053 233.351Z" fill="white"/>
<path d="M157.78 9.53689C155.595 9.53689 153.755 8.90789 153.594 8.09189C153.433 7.23339 155.181 6.49389 157.481 6.43439L220.593 4.76839C222.962 4.72589 224.917 5.35489 225.078 6.20489C225.239 7.06339 223.491 7.80289 221.191 7.86239L158.079 9.52839C158.079 9.52839 157.872 9.52839 157.78 9.52839V9.53689Z" fill="white"/>
<path d="M1054.92 168.7C1053.56 168.7 1052.23 168.462 1051.42 168.011L1041.05 162.316C1039.76 161.602 1040.27 160.642 1042.2 160.157C1044.13 159.681 1046.73 159.868 1048.04 160.582L1058.41 166.277C1059.7 166.991 1059.2 167.952 1057.26 168.436C1056.55 168.615 1055.72 168.7 1054.92 168.7Z" fill="white"/>
<path d="M460.46 183.999C459.333 183.999 458.229 183.838 457.401 183.506C455.814 182.886 455.883 181.9 457.585 181.305L465.589 178.517C467.268 177.93 469.936 177.956 471.546 178.585C473.133 179.205 473.064 180.191 471.362 180.786L463.358 183.574C462.553 183.855 461.518 183.999 460.483 183.999H460.46Z" fill="white"/>
<path d="M1047.7 95.4719C1047.37 95.4719 1047.03 95.4549 1046.71 95.4294C1044.45 95.2254 1043.05 94.3839 1043.6 93.5509L1046.94 88.4424C1047.49 87.6094 1049.77 87.0909 1052.02 87.2949C1054.27 87.4989 1055.68 88.3404 1055.12 89.1734L1051.79 94.2819C1051.33 94.9959 1049.6 95.4719 1047.7 95.4719Z" fill="white"/>
<path d="M277.15 285.608C276.437 285.608 275.724 285.54 275.057 285.404L263.925 283.05C261.901 282.625 261.211 281.673 262.361 280.925C263.511 280.177 266.087 279.922 268.111 280.347L279.243 282.701C281.267 283.126 281.957 284.078 280.807 284.826C280.025 285.328 278.622 285.608 277.15 285.608Z" fill="white"/>
<path d="M1127.23 197.957C1127.05 197.957 1126.88 197.957 1126.7 197.948L1115.57 197.438C1113.27 197.336 1111.61 196.554 1111.91 195.704C1112.19 194.854 1114.33 194.251 1116.6 194.353L1127.74 194.863C1130.04 194.965 1131.69 195.747 1131.39 196.597C1131.14 197.387 1129.32 197.965 1127.23 197.965V197.957Z" fill="white"/>
<path d="M929.683 219.368C928.878 219.368 928.073 219.283 927.337 219.104L893.504 210.715C891.572 210.239 891.066 209.27 892.354 208.556C893.642 207.842 896.264 207.655 898.196 208.131L932.029 216.512C933.961 216.988 934.467 217.957 933.179 218.671C932.374 219.121 931.04 219.359 929.683 219.359V219.368Z" fill="white"/>
<path d="M535.762 11.8149C534.244 11.8149 532.772 11.5089 532.013 10.9734C530.955 10.2084 531.76 9.2734 533.807 8.8739L562.005 3.4764C564.075 3.0854 566.605 3.3829 567.686 4.1394C568.744 4.9044 567.939 5.8394 565.892 6.2389L537.694 11.6364C537.073 11.7554 536.406 11.8064 535.762 11.8064V11.8149Z" fill="white"/>
<path d="M798.537 161.747C798.008 161.747 797.456 161.704 796.927 161.628L773.145 157.964C771.006 157.633 769.994 156.723 770.868 155.933C771.765 155.142 774.226 154.768 776.365 155.091L800.147 158.755C802.286 159.086 803.298 159.996 802.424 160.786C801.757 161.381 800.193 161.747 798.537 161.747Z" fill="white"/>
<path d="M470.534 24.5481C469.016 24.5481 467.544 24.2421 466.808 23.7151L442.382 6.45161C441.301 5.69511 442.106 4.75161 444.153 4.35211C446.223 3.95261 448.753 4.25011 449.834 5.00661L474.26 22.2701C475.341 23.0266 474.536 23.9701 472.489 24.3696C471.868 24.4886 471.201 24.5481 470.534 24.5481Z" fill="white"/>
<path d="M535.946 203.481C533.715 203.481 531.852 202.827 531.737 201.994L531.047 196.29C530.955 195.432 532.749 194.709 535.072 194.667C537.372 194.641 539.35 195.296 539.465 196.154L540.155 201.858C540.247 202.716 538.453 203.439 536.13 203.481C536.061 203.481 536.015 203.481 535.946 203.481Z" fill="white"/>
<path d="M917.01 12.138C916.32 12.138 915.63 12.0785 914.986 11.9425C912.962 11.526 912.203 10.5825 913.33 9.83447L921.38 4.42847C922.507 3.68047 925.06 3.40847 927.084 3.81647C929.108 4.23297 929.867 5.17647 928.74 5.92447L920.69 11.3305C919.931 11.849 918.482 12.138 917.01 12.138Z" fill="white"/>
<path d="M1035.02 387.864C1032.95 387.864 1031.14 387.294 1030.86 386.521L1026.54 374.723C1026.21 373.873 1027.85 373.091 1030.15 372.972C1032.45 372.844 1034.56 373.448 1034.89 374.306L1039.23 386.104C1039.55 386.954 1037.92 387.736 1035.62 387.855C1035.44 387.864 1035.23 387.872 1035.05 387.872L1035.02 387.864Z" fill="white"/>
<path d="M861.764 338.376C859.878 338.376 858.176 337.909 857.693 337.203L853.139 330.624C852.564 329.791 853.921 328.95 856.175 328.737C858.429 328.525 860.706 329.027 861.281 329.86L865.835 336.438C866.41 337.271 865.053 338.113 862.799 338.325C862.454 338.359 862.109 338.376 861.764 338.376Z" fill="white"/>
<path d="M317.331 361.352C316.48 361.352 315.606 361.259 314.847 361.055C312.961 360.553 312.57 359.576 313.927 358.887L351.555 339.83C352.912 339.133 355.557 338.98 357.42 339.49C359.306 339.992 359.697 340.969 358.34 341.658L320.712 360.715C319.884 361.131 318.619 361.352 317.308 361.352H317.331Z" fill="white"/>
<path d="M999.005 20.6889C998.775 20.6889 998.522 20.6889 998.292 20.6634C995.992 20.5189 994.474 19.7114 994.865 18.8699L1000.55 6.71491C1000.94 5.87341 1003.1 5.29541 1005.4 5.44841C1007.7 5.59291 1009.22 6.40041 1008.83 7.24191L1003.15 19.3969C1002.8 20.1534 1001.01 20.6889 999.005 20.6889Z" fill="white"/>
<path d="M1039.94 56.5335C1037.94 56.5335 1036.17 56.0065 1035.8 55.2585L1032.31 48.127C1031.89 47.2855 1033.41 46.478 1035.69 46.325C1037.97 46.172 1040.15 46.733 1040.57 47.5745L1044.06 54.706C1044.48 55.5475 1042.96 56.355 1040.68 56.508C1040.43 56.525 1040.17 56.5335 1039.92 56.5335H1039.94Z" fill="white"/>
<path d="M314.479 404.022C312.432 404.022 310.661 403.478 310.339 402.705L301.622 382.024C301.254 381.174 302.841 380.384 305.141 380.248C307.418 380.12 309.58 380.698 309.948 381.548L318.665 402.229C319.033 403.079 317.446 403.869 315.146 404.005C314.916 404.014 314.709 404.022 314.502 404.022H314.479Z" fill="white"/>
<path d="M17.917 321.139C17.227 321.139 16.537 321.079 15.893 320.943C13.869 320.527 13.11 319.583 14.237 318.835L21.62 313.897C22.747 313.149 25.3 312.868 27.324 313.285C29.348 313.701 30.107 314.645 28.98 315.393L21.597 320.331C20.838 320.841 19.389 321.139 17.917 321.139Z" fill="white"/>
<path d="M1103.68 302.668C1101.65 302.668 1099.86 302.124 1099.54 301.368L1093.72 288.21C1093.35 287.36 1094.89 286.561 1097.19 286.425C1099.49 286.289 1101.65 286.858 1102.02 287.708L1107.84 300.866C1108.21 301.716 1106.67 302.515 1104.37 302.651C1104.14 302.668 1103.91 302.668 1103.68 302.668Z" fill="white"/>
<path d="M685.722 157.097C684.388 157.097 683.077 156.867 682.272 156.434C680.938 155.728 681.421 154.759 683.307 154.266L693.864 151.546C695.773 151.053 698.395 151.232 699.729 151.929C701.063 152.634 700.58 153.603 698.694 154.096L688.137 156.816C687.401 157.003 686.573 157.097 685.745 157.097H685.722Z" fill="white"/>
<path d="M598.897 42.1431C597.425 42.1431 595.999 41.8541 595.217 41.3526L588.731 37.0856C587.604 36.3376 588.317 35.3941 590.341 34.9691C592.365 34.5526 594.941 34.8161 596.068 35.5641L602.554 39.8311C603.681 40.5791 602.968 41.5226 600.944 41.9476C600.3 42.0836 599.587 42.1431 598.897 42.1431Z" fill="white"/>
<path d="M388.884 166.03C388.125 166.03 387.366 165.954 386.676 165.801C384.698 165.35 384.1 164.39 385.319 163.659L403.512 152.787C404.731 152.056 407.33 151.835 409.308 152.286C411.286 152.736 411.884 153.697 410.665 154.428L392.472 165.299C391.667 165.775 390.31 166.039 388.884 166.039V166.03Z" fill="white"/>
<path d="M936.767 390.856C934.835 390.856 933.087 390.363 932.673 389.632C932.167 388.79 933.616 387.966 935.87 387.779L952.844 386.402C955.098 386.215 957.352 386.75 957.858 387.583C958.364 388.425 956.915 389.249 954.661 389.436L937.687 390.813C937.388 390.839 937.089 390.847 936.79 390.847L936.767 390.856Z" fill="white"/>
<path d="M462.392 217.651C461.61 217.651 460.828 217.575 460.138 217.405L444.59 213.75C442.635 213.291 442.06 212.33 443.302 211.608C444.544 210.885 447.143 210.673 449.098 211.132L464.646 214.787C466.601 215.246 467.176 216.206 465.934 216.929C465.129 217.396 463.772 217.651 462.392 217.651Z" fill="white"/>
<path d="M548.964 319.133C547.124 319.133 545.422 318.682 544.916 317.985C544.295 317.161 545.629 316.302 547.86 316.073L588.179 311.984C590.41 311.755 592.733 312.248 593.354 313.072C593.975 313.897 592.641 314.755 590.41 314.985L550.091 319.073C549.723 319.107 549.332 319.133 548.964 319.133Z" fill="white"/>
<path d="M28.704 176.112C28.29 176.112 27.876 176.086 27.462 176.044L15.295 174.667C13.064 174.42 11.822 173.545 12.512 172.729C13.202 171.904 15.548 171.445 17.756 171.7L29.923 173.077C32.154 173.324 33.396 174.199 32.706 175.015C32.154 175.687 30.475 176.112 28.681 176.112H28.704Z" fill="white"/>
<path d="M546.227 251.294C544.571 251.294 543.007 250.929 542.34 250.334L527.643 237.184C526.746 236.394 527.781 235.484 529.92 235.153C532.082 234.821 534.52 235.204 535.417 235.994L550.114 249.144C551.011 249.934 549.976 250.844 547.837 251.175C547.308 251.252 546.756 251.294 546.227 251.294Z" fill="white"/>
<path d="M957.743 166.294C956.294 166.294 954.891 166.013 954.109 165.52C952.936 164.781 953.626 163.829 955.627 163.395L965.287 161.321C967.288 160.888 969.864 161.143 971.037 161.882C972.21 162.622 971.52 163.574 969.519 164.007L959.859 166.081C959.192 166.226 958.479 166.294 957.743 166.294Z" fill="white"/>
<path d="M852.932 42.296C851.506 42.296 850.126 42.0325 849.321 41.548L835.452 33.082C834.256 32.351 834.877 31.3905 836.878 30.9485C838.856 30.5065 841.455 30.736 842.651 31.4755L856.52 39.9415C857.716 40.6725 857.095 41.633 855.094 42.075C854.404 42.228 853.668 42.296 852.909 42.296H852.932Z" fill="white"/>
<path d="M12.282 239.938C12.121 239.938 11.983 239.938 11.822 239.929C9.522 239.836 7.843 239.071 8.096 238.221L9.384 233.758C9.637 232.908 11.707 232.279 14.007 232.381C16.307 232.475 17.986 233.24 17.733 234.09L16.445 238.552C16.215 239.351 14.398 239.938 12.259 239.938H12.282Z" fill="white"/>
<path d="M1104.97 357.306C1102.9 357.306 1101.08 356.736 1100.8 355.954C1100.5 355.104 1102.11 354.322 1104.41 354.212L1137.79 352.588C1140.06 352.478 1142.2 353.073 1142.5 353.923C1142.8 354.773 1141.19 355.555 1138.89 355.665L1105.52 357.289C1105.33 357.297 1105.15 357.306 1104.97 357.306Z" fill="white"/>
<path d="M296.493 215.951C295.711 215.951 294.906 215.866 294.193 215.696L259.049 207.247C257.094 206.779 256.542 205.819 257.807 205.096C259.072 204.374 261.671 204.17 263.626 204.637L298.77 213.086C300.725 213.554 301.277 214.514 300.012 215.237C299.207 215.696 297.85 215.942 296.47 215.942L296.493 215.951Z" fill="white"/>
<path d="M125.695 118.924C125.189 118.924 124.66 118.89 124.131 118.813L83.421 112.812C81.259 112.498 80.201 111.588 81.075 110.789C81.926 109.99 84.387 109.599 86.549 109.922L127.259 115.923C129.421 116.238 130.479 117.147 129.605 117.946C128.961 118.558 127.374 118.924 125.695 118.924Z" fill="white"/>
<path d="M21.597 145.274C21.39 145.274 21.183 145.274 20.976 145.257C18.676 145.129 17.089 144.339 17.434 143.497L19.734 137.666C20.079 136.816 22.195 136.221 24.495 136.357C26.795 136.485 28.382 137.275 28.037 138.117L25.737 143.948C25.438 144.721 23.644 145.274 21.574 145.274H21.597Z" fill="white"/>
<path d="M228.229 412.981C227.861 412.981 227.493 412.964 227.102 412.921L203.596 410.541C201.365 410.312 200.031 409.462 200.652 408.629C201.273 407.804 203.573 407.311 205.827 407.541L229.333 409.921C231.564 410.15 232.898 411 232.277 411.833C231.771 412.522 230.069 412.981 228.229 412.981Z" fill="white"/>
<path d="M1115.32 418.31C1113.82 418.31 1112.37 418.013 1111.61 417.494L1105.36 413.193C1104.25 412.437 1105.03 411.493 1107.06 411.085C1109.11 410.677 1111.66 410.966 1112.76 411.714L1119.02 416.015C1120.12 416.772 1119.34 417.715 1117.32 418.123C1116.67 418.251 1116.01 418.31 1115.34 418.31H1115.32Z" fill="white"/>
<path d="M744.74 232.908C743.728 232.908 742.693 232.772 741.888 232.5L710.309 221.773C708.607 221.195 708.492 220.209 710.056 219.58C711.62 218.951 714.288 218.909 715.99 219.487L747.569 230.214C749.271 230.792 749.386 231.778 747.822 232.407C746.994 232.738 745.867 232.908 744.717 232.908H744.74Z" fill="white"/>
<path d="M298.701 321.376C298.494 321.376 298.287 321.376 298.057 321.359C295.757 321.232 294.17 320.441 294.515 319.591L297.712 311.788C298.057 310.938 300.196 310.352 302.496 310.488C304.796 310.615 306.383 311.406 306.038 312.256L302.841 320.059C302.519 320.832 300.725 321.385 298.678 321.385L298.701 321.376Z" fill="white"/>
<path d="M906.913 292.494C904.889 292.494 903.095 291.95 902.773 291.185C902.405 290.335 903.969 289.544 906.269 289.408L917.723 288.737C920.023 288.609 922.162 289.179 922.53 290.029C922.898 290.879 921.334 291.669 919.034 291.805L907.58 292.477C907.35 292.494 907.143 292.494 906.913 292.494Z" fill="white"/>
<path d="M81.949 251.302C81.006 251.302 80.063 251.183 79.281 250.945C77.487 250.401 77.234 249.424 78.706 248.761L87.768 244.681C89.24 244.018 91.885 243.924 93.679 244.468C95.473 245.012 95.726 245.99 94.254 246.653L85.192 250.733C84.364 251.107 83.145 251.302 81.949 251.302Z" fill="white"/>
<path d="M1119.02 108.197C1118.88 108.197 1118.72 108.197 1118.58 108.197L1104.97 107.661C1102.67 107.568 1100.99 106.803 1101.22 105.953C1101.47 105.103 1103.49 104.482 1105.84 104.567L1119.46 105.103C1121.76 105.196 1123.43 105.961 1123.2 106.811C1122.97 107.61 1121.16 108.205 1119.02 108.205V108.197Z" fill="white"/>
<path d="M758.655 12.597C757.114 12.597 755.619 12.2825 754.883 11.73L746.672 5.60998C745.637 4.84498 746.488 3.90998 748.581 3.52748C750.674 3.14498 753.181 3.45948 754.216 4.23298L762.427 10.353C763.462 11.118 762.611 12.053 760.518 12.4355C759.92 12.546 759.276 12.597 758.655 12.597Z" fill="white"/>
<path d="M158.194 85.1445C157.78 85.1445 157.366 85.119 156.975 85.0765L110.354 79.815C108.123 79.56 106.881 78.693 107.548 77.877C108.238 77.0525 110.584 76.5935 112.792 76.84L159.413 82.1015C161.644 82.3565 162.886 83.2235 162.219 84.0395C161.667 84.711 159.988 85.1445 158.194 85.1445Z" fill="white"/>
<path d="M1103.82 154.411C1103.38 154.411 1102.92 154.386 1102.48 154.326C1100.27 154.054 1099.1 153.17 1099.84 152.354L1109.43 141.78C1110.16 140.964 1112.56 140.531 1114.76 140.803C1116.97 141.075 1118.14 141.959 1117.41 142.775L1107.82 153.349C1107.22 154.003 1105.59 154.411 1103.84 154.411H1103.82Z" fill="white"/>
<path d="M1049.14 423.496C1048.36 423.496 1047.58 423.419 1046.89 423.249C1044.94 422.79 1044.36 421.83 1045.6 421.107L1059.49 413.041C1060.74 412.318 1063.34 412.097 1065.29 412.565C1067.25 413.024 1067.82 413.984 1066.58 414.707L1052.69 422.773C1051.88 423.241 1050.52 423.496 1049.14 423.496Z" fill="white"/>
<path d="M608.419 348.764C607.246 348.764 606.05 348.577 605.222 348.22L588.409 340.986C586.891 340.332 587.098 339.354 588.846 338.793C590.617 338.232 593.262 338.309 594.78 338.955L611.593 346.188C613.111 346.843 612.904 347.82 611.156 348.381C610.351 348.636 609.385 348.755 608.419 348.755V348.764Z" fill="white"/>
<path d="M33.718 205.836C31.625 205.836 29.808 205.258 29.555 204.468C29.279 203.618 30.912 202.844 33.212 202.734L85.79 200.371C88.067 200.269 90.183 200.872 90.482 201.722C90.758 202.572 89.125 203.346 86.825 203.456L34.247 205.819C34.086 205.819 33.902 205.828 33.741 205.828L33.718 205.836Z" fill="white"/>
<path d="M815.902 130.857C813.924 130.857 812.153 130.339 811.762 129.591L805.552 117.257C805.115 116.416 806.633 115.6 808.91 115.447C811.187 115.285 813.395 115.846 813.809 116.688L820.019 129.021C820.456 129.863 818.938 130.679 816.661 130.832C816.408 130.849 816.132 130.857 815.879 130.857H815.902Z" fill="white"/>
<path d="M379.063 285.668C378.074 285.668 377.085 285.541 376.303 285.286L346.334 275.587C344.586 275.018 344.402 274.04 345.943 273.394C347.484 272.748 350.129 272.68 351.877 273.25L381.846 282.948C383.594 283.518 383.778 284.495 382.237 285.141C381.409 285.49 380.236 285.668 379.063 285.668Z" fill="white"/>
<path d="M854.427 377.901C853.852 377.901 853.277 377.859 852.702 377.765C850.586 377.417 849.643 376.49 850.586 375.708L865.053 363.8C865.996 363.018 868.48 362.661 870.619 363.018C872.735 363.366 873.678 364.293 872.735 365.075L858.268 376.983C857.578 377.561 856.037 377.901 854.427 377.901Z" fill="white"/>
<path d="M670.381 86.479C668.564 86.479 666.885 86.037 666.333 85.357L650.279 64.838C649.635 64.0135 650.923 63.155 653.154 62.917C655.385 62.679 657.708 63.155 658.352 63.9795L674.406 84.4985C675.05 85.323 673.762 86.1815 671.531 86.4195C671.14 86.462 670.749 86.479 670.358 86.479H670.381Z" fill="white"/>
<path d="M272.435 254.618C271.147 254.618 269.882 254.405 269.054 253.997L243.961 241.604C242.581 240.916 242.949 239.947 244.812 239.428C246.675 238.91 249.32 239.054 250.7 239.743L275.793 252.136C277.173 252.824 276.805 253.793 274.942 254.312C274.183 254.524 273.309 254.618 272.435 254.618Z" fill="white"/>
<path d="M16.399 111.622C14.145 111.622 12.282 110.967 12.19 110.134L10.534 94.9619C10.442 94.1034 12.236 93.3809 14.559 93.3469C16.813 93.3214 18.837 93.9759 18.929 94.8344L20.608 110.007C20.7 110.865 18.906 111.588 16.583 111.622C16.514 111.622 16.468 111.622 16.422 111.622H16.399Z" fill="white"/>
<path d="M760.173 264.214C759.161 264.214 758.149 264.078 757.344 263.806C755.619 263.228 755.504 262.242 757.068 261.613L766.613 257.745C768.177 257.108 770.845 257.065 772.547 257.643C774.272 258.221 774.387 259.207 772.823 259.836L763.278 263.704C762.45 264.044 761.3 264.214 760.173 264.214Z" fill="white"/>
<path d="M700.074 196.146C699.614 196.146 699.154 196.12 698.694 196.061C696.509 195.78 695.336 194.888 696.118 194.08L709.366 180.098C710.125 179.29 712.517 178.865 714.725 179.146C716.91 179.426 718.083 180.319 717.301 181.126L704.053 195.109C703.455 195.746 701.822 196.154 700.074 196.154V196.146Z" fill="white"/>
<path d="M958.686 260.772C958.157 260.772 957.628 260.738 957.099 260.661L907.626 253.241C905.464 252.918 904.429 252.008 905.303 251.218C906.177 250.419 908.615 250.036 910.777 250.359L960.25 257.78C962.412 258.103 963.447 259.012 962.573 259.803C961.906 260.406 960.342 260.772 958.663 260.772H958.686Z" fill="white"/>
<path d="M878.715 179.97C876.645 179.97 874.851 179.401 874.552 178.627L870.734 168.266C870.412 167.416 872.022 166.634 874.345 166.515C876.622 166.396 878.761 166.991 879.083 167.849L882.901 178.211C883.223 179.061 881.613 179.843 879.29 179.962C879.106 179.97 878.899 179.979 878.715 179.979V179.97Z" fill="white"/>
<path d="M232.76 129.956C232.185 129.956 231.61 129.914 231.035 129.82L187.933 122.689C185.817 122.34 184.874 121.422 185.817 120.632C186.76 119.85 189.267 119.501 191.383 119.85L234.485 126.981C236.601 127.33 237.544 128.248 236.601 129.038C235.911 129.616 234.37 129.956 232.76 129.956Z" fill="white"/>
<path d="M486.22 305.371C485.944 305.371 485.668 305.363 485.392 305.337C483.115 305.167 481.643 304.351 482.103 303.51L492.246 284.954C492.706 284.113 494.914 283.569 497.191 283.739C499.468 283.909 500.94 284.725 500.48 285.566L490.337 304.122C489.923 304.861 488.175 305.371 486.22 305.371Z" fill="white"/>
<path d="M504.39 52.6319C502.688 52.6319 501.078 52.2409 500.434 51.6119C499.629 50.8044 500.756 49.9119 502.941 49.6144L521.755 47.0644C523.94 46.7669 526.355 47.1834 527.16 47.9909C527.965 48.7984 526.838 49.6909 524.653 49.9884L505.839 52.5384C505.356 52.6064 504.873 52.6319 504.39 52.6319Z" fill="white"/>
<path d="M502.941 153.578C500.641 153.578 498.755 152.889 498.732 152.039C498.732 151.181 500.572 150.475 502.895 150.475L549.723 150.331C552.207 150.288 553.955 151.011 553.955 151.869C553.955 152.728 552.115 153.433 549.792 153.433L502.964 153.578H502.918H502.941Z" fill="white"/>
<path d="M999.718 297.304C999.327 297.304 998.936 297.287 998.545 297.245C996.314 297.007 995.026 296.14 995.67 295.315L1012.02 274.473C1012.67 273.649 1015.01 273.173 1017.24 273.411C1019.47 273.649 1020.76 274.516 1020.12 275.34L1003.77 296.182C1003.24 296.862 1001.56 297.304 999.718 297.304Z" fill="white"/>
<path d="M942.379 358.198C940.7 358.198 939.113 357.824 938.469 357.212C937.618 356.413 938.676 355.512 940.838 355.198L968.3 351.203C970.462 350.888 972.9 351.279 973.751 352.078C974.602 352.877 973.544 353.778 971.382 354.093L943.92 358.088C943.414 358.164 942.885 358.198 942.379 358.198Z" fill="white"/>
<path d="M768.453 95.9479C767.096 95.9479 765.785 95.7099 764.957 95.2679L756.723 90.7714C755.412 90.0574 755.918 89.0969 757.85 88.6124C759.782 88.1279 762.381 88.3149 763.692 89.0289L771.926 93.5254C773.237 94.2394 772.731 95.1999 770.799 95.6844C770.086 95.8629 769.258 95.9479 768.453 95.9479Z" fill="white"/>
<path d="M447.672 129.302C446.2 129.302 444.774 129.021 444.015 128.511L420.302 112.965C419.152 112.217 419.888 111.265 421.889 110.848C423.913 110.423 426.466 110.695 427.616 111.435L451.329 126.981C452.479 127.729 451.743 128.681 449.742 129.098C449.098 129.234 448.385 129.302 447.672 129.302Z" fill="white"/>
<path d="M668.794 256.471C667.736 256.471 666.678 256.326 665.873 256.037L639.216 246.509C637.537 245.914 637.514 244.928 639.124 244.307C640.734 243.687 643.402 243.67 645.081 244.273L671.738 253.801C673.417 254.396 673.44 255.382 671.83 256.003C671.002 256.317 669.898 256.479 668.817 256.479L668.794 256.471Z" fill="white"/>
<path d="M779.424 315.24C778.228 315.24 777.032 315.053 776.204 314.679C774.709 314.016 774.962 313.038 776.733 312.486L814.453 300.841C816.224 300.288 818.892 300.382 820.387 301.036C821.882 301.699 821.629 302.677 819.858 303.229L782.138 314.874C781.356 315.121 780.39 315.24 779.447 315.24H779.424Z" fill="white"/>
<path d="M242.949 354.714C242.696 354.714 242.443 354.714 242.167 354.688L224.066 353.43C221.789 353.269 220.271 352.461 220.708 351.62C221.145 350.778 223.353 350.217 225.607 350.379L243.708 351.637C245.985 351.798 247.503 352.606 247.066 353.447C246.675 354.195 244.927 354.714 242.926 354.714H242.949Z" fill="white"/>
<path d="M445.211 391.297C444.544 391.297 443.854 391.238 443.21 391.11L391.506 380.749C389.459 380.341 388.7 379.397 389.804 378.641C390.908 377.884 393.461 377.604 395.508 378.012L447.212 388.373C449.259 388.781 450.018 389.725 448.914 390.481C448.155 391 446.706 391.297 445.211 391.297Z" fill="white"/>
<path d="M725.282 126.862C724.339 126.862 723.373 126.743 722.591 126.505L697.291 118.719C695.497 118.167 695.267 117.189 696.739 116.526C698.234 115.863 700.879 115.778 702.673 116.322L727.973 124.108C729.767 124.661 729.997 125.638 728.525 126.301C727.697 126.667 726.501 126.862 725.282 126.862Z" fill="white"/>
<path d="M226.366 63.3759C224.204 63.3759 222.387 62.7724 222.18 61.9649L216.338 38.5814C216.131 37.7229 217.833 36.9664 220.133 36.8899C222.456 36.8049 224.503 37.4424 224.71 38.2924L230.552 61.6759C230.759 62.5344 229.057 63.2909 226.757 63.3674C226.619 63.3674 226.504 63.3674 226.366 63.3674V63.3759Z" fill="white"/>
<path d="M595.424 378.293C595.01 378.293 594.573 378.267 594.159 378.216L584.016 377.018C581.808 376.754 580.589 375.887 581.279 375.063C581.992 374.247 584.361 373.796 586.569 374.051L596.712 375.241C598.92 375.505 600.139 376.372 599.449 377.196C598.874 377.859 597.218 378.284 595.447 378.284L595.424 378.293Z" fill="white"/>
<path d="M535.44 120.479C534.451 120.479 533.439 120.352 532.634 120.08L523.963 117.207C522.238 116.629 522.1 115.651 523.641 115.014C525.182 114.376 527.85 114.317 529.575 114.895L538.246 117.768C539.971 118.346 540.109 119.323 538.568 119.961C537.74 120.301 536.59 120.479 535.44 120.479Z" fill="white"/>
<path d="M841.363 238.637C840.006 238.637 838.695 238.399 837.867 237.949L822.48 229.517C821.192 228.803 821.698 227.842 823.607 227.358C825.539 226.882 828.138 227.069 829.449 227.774L844.836 236.206C846.124 236.92 845.618 237.881 843.709 238.365C842.996 238.544 842.168 238.629 841.363 238.629V238.637Z" fill="white"/>
<path d="M1106.21 68.6716C1106.21 68.6716 1106.05 68.6716 1105.96 68.6716C1103.63 68.6206 1101.86 67.8896 1102 67.0311L1105.36 45.8661C1105.49 45.0076 1107.52 44.3446 1109.8 44.4041C1112.12 44.4551 1113.89 45.1861 1113.75 46.0446L1110.39 67.2096C1110.26 68.0341 1108.42 68.6716 1106.21 68.6716Z" fill="white"/>
<path d="M675.027 34.4166C673.003 34.4166 671.209 33.8726 670.887 33.1161C670.519 32.2661 672.06 31.4671 674.36 31.3311L710.424 29.1551C712.701 29.0191 714.886 29.5886 715.254 30.4386C715.622 31.2886 714.081 32.0876 711.781 32.2236L675.717 34.3996C675.487 34.4166 675.257 34.4166 675.027 34.4166Z" fill="white"/>
<path d="M784.323 352.368C783.702 352.368 783.081 352.317 782.483 352.206L741.014 344.692C738.921 344.318 738.07 343.383 739.082 342.61C740.094 341.836 742.624 341.522 744.717 341.896L786.186 349.41C788.279 349.784 789.13 350.719 788.118 351.492C787.382 352.045 785.887 352.359 784.346 352.359L784.323 352.368Z" fill="white"/>
<path d="M617.619 183.625C616.446 183.625 615.273 183.447 614.445 183.09L591.514 173.34C589.996 172.694 590.18 171.708 591.928 171.147C593.676 170.586 596.344 170.654 597.862 171.3L620.793 181.05C622.311 181.696 622.127 182.682 620.379 183.243C619.574 183.498 618.608 183.625 617.619 183.625Z" fill="white"/>
<path d="M842.49 274.686C842.145 274.686 841.8 274.669 841.455 274.635C839.201 274.423 837.844 273.581 838.419 272.748L841.8 267.844C842.375 267.011 844.652 266.501 846.906 266.722C849.16 266.934 850.517 267.776 849.942 268.609L846.561 273.513C846.078 274.219 844.376 274.686 842.49 274.686Z" fill="white"/>
<path d="M218.5 325.312C216.568 325.312 214.82 324.819 214.406 324.088L201.641 302.702C201.135 301.861 202.584 301.036 204.838 300.849C207.092 300.662 209.346 301.198 209.852 302.031L222.617 323.417C223.123 324.258 221.674 325.083 219.42 325.27C219.121 325.295 218.799 325.304 218.5 325.304V325.312Z" fill="white"/>
<path d="M527.873 409.87C526.769 409.87 525.642 409.708 524.814 409.385C523.227 408.765 523.296 407.779 524.975 407.184L549.539 398.599C551.218 398.012 553.886 398.038 555.496 398.658C557.083 399.279 557.014 400.265 555.335 400.86L530.771 409.445C529.966 409.725 528.908 409.87 527.873 409.87Z" fill="white"/>
<path d="M197.892 190.774C196.765 190.774 195.661 190.613 194.833 190.281L162.702 177.608C161.115 176.979 161.207 176.001 162.886 175.406C164.588 174.82 167.256 174.854 168.843 175.474L200.974 188.148C202.561 188.777 202.469 189.754 200.79 190.349C199.985 190.63 198.95 190.765 197.915 190.765L197.892 190.774Z" fill="white"/>
<path d="M952.43 321.529C952.315 321.529 952.2 321.529 952.085 321.529L920.966 320.56C918.643 320.492 916.941 319.736 917.125 318.877C917.309 318.019 919.333 317.381 921.679 317.458L952.798 318.427C955.121 318.495 956.823 319.251 956.639 320.11C956.455 320.917 954.615 321.538 952.453 321.538L952.43 321.529Z" fill="white"/>
<path d="M977.891 197.88C976.051 197.88 974.349 197.429 973.843 196.732C973.222 195.899 974.556 195.049 976.787 194.82L1007.33 191.743C1009.59 191.513 1011.89 192.006 1012.51 192.831C1013.13 193.664 1011.79 194.514 1009.56 194.743L979.018 197.82C978.65 197.854 978.282 197.88 977.914 197.88H977.891Z" fill="white"/>
<path d="M977.247 412.275C975.752 412.275 974.28 411.978 973.521 411.451C972.44 410.694 973.199 409.751 975.269 409.351L989.989 406.453C992.036 406.045 994.589 406.342 995.67 407.099C996.751 407.855 995.992 408.799 993.922 409.198L979.202 412.097C978.581 412.224 977.891 412.275 977.224 412.275H977.247Z" fill="white"/>
<path d="M1048.02 134.929C1047.42 134.929 1046.8 134.878 1046.22 134.776L987.022 124.355C984.929 123.99 984.032 123.055 985.021 122.281C986.01 121.508 988.54 121.176 990.633 121.542L1049.84 131.963C1051.93 132.328 1052.83 133.263 1051.84 134.037C1051.12 134.598 1049.61 134.921 1048.04 134.921L1048.02 134.929Z" fill="white"/>
<path d="M764.474 390.286C763.577 390.286 762.68 390.184 761.921 389.972C760.081 389.453 759.713 388.476 761.116 387.796L776.687 380.239C778.09 379.559 780.735 379.423 782.575 379.942C784.415 380.46 784.783 381.438 783.38 382.118L767.809 389.674C766.981 390.074 765.739 390.286 764.451 390.286H764.474Z" fill="white"/>
<path d="M963.125 92.0381C962.987 92.0381 962.872 92.0381 962.734 92.0381C960.411 91.9616 958.709 91.2051 958.939 90.3466L961.561 79.8321C961.768 78.9736 963.838 78.3446 966.138 78.4296C968.461 78.5061 970.163 79.2626 969.933 80.1211L967.311 90.6356C967.104 91.4431 965.287 92.0466 963.125 92.0466V92.0381Z" fill="white"/>
<path d="M875.449 88.8249C874.253 88.8249 873.057 88.6379 872.229 88.2724L838.833 73.5759C837.338 72.9214 837.568 71.9354 839.339 71.3829C841.11 70.8304 843.778 70.9154 845.273 71.5699L878.669 86.2664C880.164 86.9209 879.934 87.9069 878.163 88.4594C877.381 88.7059 876.415 88.8249 875.449 88.8249Z" fill="white"/>
<path d="M96.002 158.321C94.53 158.321 93.081 158.032 92.322 157.522C91.195 156.774 91.931 155.822 93.955 155.405L128.432 148.333C130.456 147.917 133.032 148.189 134.159 148.937C135.286 149.685 134.55 150.637 132.526 151.053L98.049 158.125C97.405 158.261 96.692 158.321 96.002 158.321Z" fill="white"/>
<path d="M366.919 13.3619C364.895 13.3619 363.124 12.8264 362.779 12.0614L359.007 3.6719C358.616 2.8219 360.18 2.0229 362.457 1.8869C364.734 1.7424 366.919 2.3204 367.287 3.1619L371.059 11.5514C371.45 12.4014 369.886 13.2004 367.609 13.3364C367.379 13.3534 367.149 13.3534 366.919 13.3534V13.3619Z" fill="white"/>
<path d="M183.632 271.439C182.321 271.439 181.033 271.209 180.205 270.793L166.29 263.61C164.933 262.913 165.37 261.944 167.256 261.443C169.142 260.941 171.764 261.103 173.121 261.8L187.036 268.982C188.393 269.679 187.956 270.648 186.07 271.15C185.334 271.345 184.483 271.439 183.632 271.439Z" fill="white"/>
<path d="M1130.22 391.178C1128.17 391.178 1126.38 390.626 1126.08 389.861L1123.16 382.823C1122.81 381.973 1124.38 381.182 1126.68 381.055C1128.95 380.927 1131.12 381.505 1131.46 382.355L1134.38 389.393C1134.73 390.243 1133.16 391.034 1130.86 391.161C1130.66 391.17 1130.43 391.178 1130.22 391.178Z" fill="white"/>
<path d="M512.164 89.4285C510.485 89.4285 508.921 89.0545 508.254 88.451C507.403 87.652 508.438 86.751 510.6 86.428L566.49 78.2085C568.652 77.894 571.09 78.2765 571.964 79.0755C572.815 79.8745 571.78 80.7755 569.618 81.0985L513.728 89.318C513.222 89.3945 512.693 89.4285 512.164 89.4285Z" fill="white"/>
<path d="M697.107 370.642C696.532 370.642 695.957 370.6 695.405 370.506L665.206 365.576C663.09 365.228 662.124 364.31 663.067 363.528C664.01 362.746 666.494 362.389 668.61 362.737L698.809 367.667C700.925 368.016 701.891 368.934 700.971 369.716C700.281 370.294 698.74 370.642 697.13 370.642H697.107Z" fill="white"/>
<path d="M1034.89 338.028C1034.24 338.028 1033.6 337.977 1032.98 337.858C1030.91 337.467 1030.08 336.532 1031.14 335.767L1059.68 314.984C1060.74 314.219 1063.27 313.913 1065.34 314.304C1067.41 314.695 1068.23 315.63 1067.18 316.395L1038.63 337.178C1037.9 337.722 1036.4 338.028 1034.89 338.028Z" fill="white"/>
<path d="M385.986 414.435C383.778 414.435 381.915 413.797 381.8 412.973C381.662 412.114 383.433 411.383 385.756 411.332L436.379 410.219C438.702 410.159 440.703 410.822 440.818 411.681C440.956 412.539 439.185 413.27 436.862 413.321L386.239 414.435C386.239 414.435 386.078 414.435 385.986 414.435Z" fill="white"/>
<path d="M304.267 73.6439C302.473 73.6439 300.794 73.2104 300.242 72.5389C299.575 71.7144 300.817 70.8474 303.048 70.6009L351.026 65.2374C353.257 64.9909 355.603 65.4499 356.27 66.2744C356.937 67.0989 355.695 67.9659 353.464 68.2124L305.486 73.5759C305.072 73.6184 304.681 73.6439 304.267 73.6439Z" fill="white"/>
<path d="M23.897 33.9405C21.896 33.9405 20.125 33.4135 19.757 32.657L8.326 8.88253C7.912 8.04103 9.453 7.23353 11.73 7.08053C14.03 6.92753 16.192 7.49703 16.606 8.33853L28.037 32.113C28.451 32.9545 26.91 33.762 24.633 33.915C24.38 33.932 24.127 33.9405 23.897 33.9405Z" fill="white"/>
<path d="M443.348 264.987C441.324 264.987 439.53 264.443 439.208 263.678L430.031 242.522C429.663 241.672 431.227 240.873 433.527 240.745C435.804 240.609 437.989 241.187 438.334 242.037L447.511 263.194C447.879 264.044 446.315 264.843 444.015 264.979C443.785 264.996 443.555 264.996 443.348 264.996V264.987Z" fill="white"/>
<path d="M808.427 199.172C807.99 199.172 807.553 199.147 807.116 199.096L791.2 197.175C788.992 196.911 787.796 196.027 788.509 195.211C789.222 194.395 791.591 193.945 793.822 194.217L809.738 196.138C811.946 196.401 813.142 197.285 812.429 198.101C811.854 198.756 810.198 199.172 808.427 199.172Z" fill="white"/>
<path d="M337.272 106.182C335.708 106.182 334.213 105.859 333.477 105.307C332.465 104.533 333.339 103.607 335.432 103.233L354.706 99.7816C356.799 99.4076 359.306 99.7306 360.318 100.504C361.33 101.278 360.456 102.204 358.363 102.578L339.089 106.029C338.491 106.131 337.87 106.182 337.249 106.182H337.272Z" fill="white"/>
<path d="M411.286 45.9339C410.297 45.9339 409.308 45.8064 408.503 45.5514L400.223 42.8654C398.475 42.2959 398.314 41.3184 399.832 40.6724C401.373 40.0264 404.018 39.9669 405.766 40.5279L414.046 43.2139C415.794 43.7834 415.955 44.7609 414.437 45.4069C413.609 45.7554 412.436 45.9339 411.263 45.9339H411.286Z" fill="white"/>
<path d="M406.824 314.151C406.571 314.151 406.318 314.151 406.065 314.126L384.353 312.655C382.076 312.502 380.558 311.686 380.972 310.845C381.386 310.003 383.571 309.442 385.871 309.595L407.583 311.066C409.86 311.219 411.378 312.035 410.964 312.876C410.596 313.624 408.825 314.151 406.824 314.151Z" fill="white"/>
<path d="M880.854 410.236C878.646 410.236 876.783 409.598 876.668 408.774L874.276 393.967C874.138 393.108 875.909 392.377 878.232 392.326C880.555 392.258 882.533 392.93 882.671 393.788L885.063 408.595C885.201 409.454 883.43 410.185 881.107 410.236C881.015 410.236 880.946 410.236 880.854 410.236Z" fill="white"/>
<path d="M37.375 373.651C35.604 373.651 33.971 373.243 33.396 372.589L15.939 353.319C15.203 352.503 16.399 351.628 18.584 351.356C20.769 351.084 23.161 351.526 23.897 352.333L41.354 371.603C42.09 372.419 40.894 373.294 38.709 373.566C38.272 373.617 37.812 373.651 37.375 373.651Z" fill="white"/>
<path d="M130.272 302.787C129.237 302.787 128.179 302.642 127.374 302.362L80.638 285.957C78.959 285.362 78.89 284.384 80.477 283.755C82.087 283.135 84.732 283.109 86.434 283.696L133.17 300.101C134.849 300.696 134.918 301.673 133.331 302.302C132.503 302.625 131.399 302.787 130.272 302.787Z" fill="white"/>
<path d="M646.001 7.77762C644.575 7.77762 643.172 7.50562 642.39 7.02112C641.194 6.28162 641.861 5.32962 643.862 4.88762L658.697 1.63212C660.698 1.19012 663.274 1.43662 664.47 2.17612C665.666 2.91562 664.999 3.86762 662.998 4.30962L648.163 7.56512C647.496 7.70962 646.76 7.78612 646.024 7.78612L646.001 7.77762Z" fill="white"/>
<path d="M107.824 47.7359C105.823 47.7359 104.052 47.2089 103.684 46.4524C103.27 45.6109 104.811 44.8034 107.088 44.6504L139.909 42.4829C142.232 42.3299 144.371 42.8909 144.785 43.7409C145.199 44.5824 143.681 45.3899 141.381 45.5429L108.56 47.7104C108.307 47.7274 108.054 47.7359 107.824 47.7359Z" fill="white"/>
<path d="M699.407 412.701C697.337 412.701 695.52 412.131 695.244 411.358L687.976 391.621C687.654 390.771 689.264 389.989 691.587 389.87C693.91 389.751 696.003 390.346 696.325 391.204L703.593 410.941C703.915 411.791 702.305 412.573 699.982 412.692C699.798 412.701 699.591 412.709 699.407 412.709V412.701Z" fill="white"/>
<path d="M92.805 12.2484C91.356 12.2484 89.953 11.9764 89.171 11.4834L79.511 5.4059C78.338 4.6664 79.005 3.7144 81.006 3.2809C83.007 2.8474 85.583 3.0939 86.756 3.8334L96.416 9.9109C97.589 10.6504 96.922 11.6024 94.921 12.0359C94.254 12.1804 93.518 12.2484 92.805 12.2484Z" fill="white"/>
<path d="M138.115 394C136.16 394 134.389 393.49 133.998 392.751L124.085 374.646C123.625 373.804 125.097 372.988 127.374 372.818C129.674 372.648 131.859 373.192 132.319 374.034L142.232 392.139C142.692 392.98 141.22 393.796 138.943 393.966C138.667 393.983 138.391 394 138.115 394Z" fill="white"/>
<path d="M427.961 349.971C427.34 349.971 426.696 349.92 426.098 349.809C424.028 349.427 423.177 348.492 424.212 347.727L433.343 340.961C434.378 340.196 436.908 339.881 438.978 340.264C441.048 340.646 441.899 341.581 440.864 342.346L431.733 349.112C430.997 349.656 429.502 349.971 427.961 349.971Z" fill="white"/>
<path d="M632.868 143.565C631.695 143.565 630.545 143.387 629.717 143.038L612.329 135.737C610.788 135.091 610.972 134.113 612.72 133.544C614.468 132.974 617.113 133.042 618.654 133.688L636.042 140.99C637.583 141.636 637.399 142.613 635.651 143.183C634.846 143.446 633.857 143.574 632.868 143.574V143.565Z" fill="white"/>
<path d="M617.527 110.118C616.101 110.118 614.721 109.854 613.939 109.37L606.694 104.992C605.475 104.261 606.096 103.301 608.097 102.859C610.075 102.408 612.674 102.638 613.87 103.377L621.115 107.755C622.334 108.486 621.713 109.446 619.712 109.888C619.022 110.041 618.263 110.118 617.527 110.118Z" fill="white"/>
<path d="M955.236 49.8949C955.052 49.8949 954.868 49.8949 954.684 49.8779L920 48.1779C917.7 48.0674 916.067 47.2854 916.389 46.4354C916.688 45.5854 918.827 44.9819 921.104 45.1009L955.788 46.8009C958.088 46.9114 959.721 47.6934 959.399 48.5434C959.123 49.3254 957.306 49.8949 955.236 49.8949Z" fill="white"/>
<path d="M316.296 37.927C314.686 37.927 313.145 37.587 312.455 37.0005L286.511 15.4615C285.568 14.6796 286.511 13.7615 288.65 13.413C290.766 13.0645 293.25 13.413 294.193 14.2035L320.137 35.7425C321.08 36.5245 320.137 37.4425 317.998 37.791C317.446 37.8845 316.871 37.927 316.296 37.927Z" fill="white"/>
<path d="M18.032 283.382C15.87 283.382 14.03 282.769 13.846 281.953L11.27 270.096C11.086 269.237 12.811 268.489 15.134 268.421C17.457 268.336 19.481 268.991 19.665 269.849L22.241 281.707C22.425 282.565 20.7 283.314 18.377 283.382C18.262 283.382 18.147 283.382 18.032 283.382Z" fill="white"/>
<path d="M328.417 145.376C326.899 145.376 325.427 145.07 324.691 144.543L307.303 132.243C306.222 131.487 307.027 130.543 309.074 130.144C311.121 129.744 313.674 130.042 314.755 130.798L332.143 143.098C333.224 143.854 332.419 144.798 330.372 145.197C329.751 145.316 329.084 145.376 328.44 145.376H328.417Z" fill="white"/>
<path d="M737.449 62.4325C736.115 62.4325 734.827 62.203 733.999 61.7695C732.665 61.064 733.125 60.0951 735.034 59.6021L780.275 47.8891C782.184 47.3961 784.806 47.5661 786.14 48.2716C787.474 48.9771 787.014 49.9461 785.105 50.4391L739.864 62.1521C739.128 62.3391 738.277 62.4325 737.449 62.4325Z" fill="white"/>
<path d="M143.014 344.488C142.232 344.488 141.427 344.403 140.737 344.241L97.658 333.905C95.703 333.438 95.151 332.477 96.416 331.755C97.681 331.032 100.28 330.828 102.235 331.296L145.314 341.632C147.269 342.099 147.821 343.06 146.556 343.782C145.751 344.241 144.394 344.488 143.014 344.488Z" fill="white"/>
<path d="M56.212 411.765C56.005 411.765 55.775 411.765 55.545 411.748C53.245 411.612 51.681 410.822 52.049 409.972L59.639 392.096C60.007 391.246 62.169 390.677 64.446 390.804C66.746 390.94 68.31 391.731 67.942 392.581L60.352 410.456C60.03 411.221 58.236 411.765 56.212 411.765Z" fill="white"/>
<path d="M357.604 242.751C355.764 242.751 354.062 242.301 353.556 241.612L350.29 237.261C349.669 236.436 350.98 235.578 353.211 235.348C355.442 235.119 357.765 235.603 358.386 236.427L361.652 240.779C362.273 241.604 360.962 242.462 358.731 242.692C358.363 242.734 357.972 242.751 357.604 242.751Z" fill="white"/>
<path d="M225.354 157.947C224.365 157.947 223.376 157.819 222.594 157.564C220.846 156.995 220.662 156.017 222.203 155.371L229.402 152.328C230.92 151.682 233.588 151.614 235.336 152.184C237.084 152.753 237.268 153.731 235.727 154.377L228.528 157.42C227.7 157.768 226.527 157.947 225.354 157.947Z" fill="white"/>
<path d="M423.982 82.3396C423.269 82.3396 422.556 82.2716 421.889 82.1356C419.865 81.7106 419.175 80.7586 420.325 80.0106L436.103 69.8446C437.253 69.0966 439.829 68.8416 441.853 69.2666C443.877 69.6916 444.567 70.6436 443.417 71.3916L427.639 81.5576C426.857 82.0591 425.454 82.3396 423.982 82.3396Z" fill="white"/>
<path d="M603.566 285.549C602.163 285.549 600.806 285.294 600.001 284.827L586.891 277.151C585.649 276.429 586.247 275.468 588.202 275.009C590.18 274.55 592.779 274.771 593.998 275.494L607.108 283.169C608.35 283.892 607.752 284.852 605.797 285.311C605.107 285.473 604.325 285.549 603.566 285.549Z" fill="white"/>
<path d="M1050.64 23.9956C1048.66 23.9956 1046.91 23.4771 1046.52 22.7376C1046.09 21.8961 1047.56 21.0801 1049.84 20.9101L1103.61 17.0256C1105.89 16.8556 1108.09 17.4081 1108.55 18.2496C1108.99 19.0911 1107.52 19.9071 1105.24 20.0771L1051.47 23.9616C1051.19 23.9786 1050.92 23.9871 1050.66 23.9871L1050.64 23.9956Z" fill="white"/>
<path d="M303.37 178.016C303.094 178.016 302.818 178.007 302.542 177.99L288.236 176.945C285.959 176.775 284.464 175.959 284.924 175.117C285.384 174.276 287.592 173.723 289.869 173.893L304.175 174.939C306.452 175.109 307.924 175.925 307.487 176.766C307.096 177.506 305.325 178.016 303.37 178.016Z" fill="white"/>
<path d="M257.807 102.51C256.381 102.51 254.978 102.238 254.196 101.753L238.487 92.0465C237.291 91.307 237.935 90.3549 239.936 89.9129C241.937 89.4709 244.513 89.709 245.709 90.4485L261.418 100.155C262.614 100.895 261.97 101.847 259.969 102.289C259.302 102.442 258.543 102.51 257.807 102.51Z" fill="white"/>
<path d="M32.039 66.6399C31.694 66.6399 31.326 66.6229 30.981 66.5889L13.317 64.8974C11.063 64.6849 9.706 63.8349 10.304 63.0019C10.902 62.1689 13.179 61.6759 15.433 61.8884L33.097 63.5799C35.351 63.7924 36.708 64.6424 36.11 65.4754C35.627 66.1724 33.902 66.6399 32.039 66.6399Z" fill="white"/>
<path d="M1107.68 259.072C1107.52 259.072 1107.36 259.072 1107.2 259.063L1094.22 258.511C1091.92 258.409 1090.27 257.644 1090.52 256.785C1090.8 255.935 1092.89 255.314 1095.19 255.416L1108.16 255.969C1110.46 256.071 1112.12 256.836 1111.87 257.695C1111.61 258.485 1109.8 259.072 1107.7 259.072H1107.68Z" fill="white"/>
<path d="M1099.22 221.85C1098.87 221.85 1098.53 221.833 1098.18 221.799L1078.24 219.937C1075.99 219.725 1074.63 218.883 1075.18 218.05C1075.76 217.217 1078.03 216.716 1080.29 216.92L1100.23 218.781C1102.48 218.994 1103.84 219.835 1103.29 220.668C1102.8 221.374 1101.1 221.841 1099.22 221.841V221.85Z" fill="white"/>
<path d="M677.12 328.746C675.004 328.746 673.164 328.151 672.934 327.352L668.84 312.962C668.587 312.112 670.266 311.346 672.589 311.253C674.889 311.168 676.959 311.78 677.212 312.639L681.306 327.029C681.559 327.879 679.88 328.644 677.557 328.738C677.396 328.738 677.258 328.738 677.12 328.738V328.746Z" fill="white"/>
<path d="M910.8 140.335C908.914 140.335 907.212 139.868 906.729 139.154L891.986 117.343C891.434 116.51 892.791 115.668 895.045 115.456C897.276 115.252 899.576 115.753 900.151 116.586L914.894 138.397C915.446 139.23 914.089 140.072 911.835 140.284C911.49 140.318 911.145 140.327 910.823 140.327L910.8 140.335Z" fill="white"/>
<path d="M795.662 412.514H795.57L777.538 412.378C775.215 412.361 773.375 411.647 773.421 410.788C773.467 409.93 775.376 409.284 777.722 409.267L795.754 409.403C798.077 409.42 799.917 410.134 799.871 410.992C799.825 411.842 797.962 412.514 795.662 412.514Z" fill="white"/>
</svg>
